<svg id="Capa_1" enable-background="new 0 0 511.708 511.708" height="512" viewBox="0 0 511.708 511.708" width="512" xmlns="http://www.w3.org/2000/svg"><g><g><path d="m255.854 170.464c-47.083 0-85.389 38.306-85.389 85.39s38.306 85.39 85.389 85.39 85.389-38.306 85.389-85.39-38.305-85.39-85.389-85.39zm0 155.78c-38.813 0-70.389-31.576-70.389-70.39s31.577-70.39 70.389-70.39 70.389 31.576 70.389 70.39-31.576 70.39-70.389 70.39z"/><path d="m255.854 213.286c-23.472 0-42.568 19.096-42.568 42.568s19.096 42.568 42.568 42.568 42.568-19.096 42.568-42.568-19.096-42.568-42.568-42.568zm0 70.136c-15.201 0-27.568-12.367-27.568-27.568s12.367-27.568 27.568-27.568 27.568 12.367 27.568 27.568-12.367 27.568-27.568 27.568z"/><path d="m504.007 240.853c-2.136-1.533-4.741-3.404-7.884-5.664 20.467-53.341-5.207-112.096-55.755-134.655.621-3.8 1.138-6.954 1.564-9.543.963-5.856-.967-11.857-5.164-16.054-4.196-4.195-10.199-6.123-16.053-5.161h.001c-2.605.428-5.79.951-9.647 1.581-23.115-51.694-82.322-75.835-134.568-55.796-2.25-3.128-4.115-5.726-5.647-7.861-3.459-4.821-9.067-7.7-15.001-7.7s-11.542 2.879-15.001 7.7c-1.531 2.134-3.397 4.732-5.647 7.861-12.107-4.644-24.834-6.999-37.921-6.999-9.562 0-19.062 1.294-28.237 3.845-3.991 1.109-6.326 5.244-5.217 9.234 1.109 3.991 5.241 6.33 9.235 5.217 7.866-2.187 16.015-3.296 24.219-3.296 9.894 0 19.547 1.568 28.806 4.661-3.556 4.936-7.687 10.665-12.463 17.285-14.441-3.42-29.677-2.24-43.464 3.471-13.786 5.71-25.394 15.649-33.188 28.28-8.023-1.298-14.962-2.423-20.94-3.394 6.526-13.1 16.046-24.392 27.909-32.992 3.354-2.431 4.102-7.12 1.67-10.474-2.43-3.354-7.12-4.102-10.474-1.671-15.081 10.932-26.906 25.588-34.497 42.63-3.857-.63-7.044-1.153-9.652-1.582-5.857-.969-11.857.965-16.053 5.161-4.197 4.196-6.127 10.197-5.164 16.054.425 2.58.941 5.732 1.564 9.543-50.538 22.555-76.226 81.305-55.755 134.656-3.143 2.26-5.748 4.131-7.884 5.664-4.821 3.459-7.7 9.066-7.701 15 0 5.935 2.878 11.543 7.701 15.003 2.129 1.528 4.732 3.397 7.883 5.663-20.467 53.343 5.209 112.097 55.755 134.655-.621 3.8-1.138 6.954-1.564 9.543-.963 5.856.967 11.857 5.164 16.054 3.484 3.483 8.212 5.405 13.069 5.405 2.049 0 2.446-.161 12.63-1.825 23.149 51.771 82.459 75.784 134.568 55.796 2.25 3.128 4.115 5.726 5.647 7.86 3.459 4.821 9.067 7.7 15.001 7.7s11.542-2.879 15.001-7.7c1.531-2.134 3.397-4.732 5.647-7.86 20.269 7.775 42.31 9.003 62.777 4.034 4.025-.977 6.496-5.031 5.52-9.057-.978-4.026-5.033-6.5-9.058-5.52-15.861 3.848-33.387 3.472-50.124-2.12 3.555-4.934 7.682-10.658 12.456-17.274 29.727 7.041 60.591-5.724 76.66-31.761 8.03 1.299 14.968 2.424 20.939 3.394-6.951 13.971-17.263 25.828-30.221 34.614-3.428 2.325-4.323 6.989-1.999 10.417 1.45 2.139 3.811 3.292 6.214 3.292 1.449 0 2.913-.419 4.202-1.293 16.389-11.113 29.143-26.427 37.195-44.523 10.268 1.678 10.614 1.826 12.636 1.826 4.857 0 9.586-1.922 13.071-5.406 4.196-4.196 6.126-10.197 5.163-16.053-.426-2.589-.943-5.743-1.564-9.543 50.538-22.555 76.225-81.305 55.755-134.655 3.15-2.265 5.754-4.135 7.884-5.663 4.822-3.459 7.701-9.067 7.701-15.001.001-5.936-2.878-11.544-7.7-15.003zm-66.147-124.922c39.927 19.988 60.13 66.698 45.581 110.129-4.924-3.547-10.638-7.668-17.241-12.432 7.033-29.709-5.68-60.562-31.751-76.653 1.305-8.063 2.435-15.037 3.411-21.044zm-6.063 37.461c15.323 12.068 23.223 31.114 20.919 50.502-24.285-17.536-23.119-16.759-26.154-18.75.743-3.585.518-2.518 5.235-31.752zm-8.645-68.815c1.527-.248 2.542.499 3.011.968.47.47 1.22 1.484.969 3.011-.629 3.823-1.454 8.86-2.524 15.427-.004.023-.008.047-.011.07-1.436 8.813-3.317 20.395-5.766 35.549-.005.025-.008.05-.012.076-6.136 37.965-6.521 78.386-46.658 88.783-1.295-5.53-3.443-12.498-6.21-19.068 26.975-6.42 26.204-30.197 35.178-85.598.59-3.646-.615-7.38-3.225-9.989-2.609-2.608-6.344-3.815-9.988-3.223-56.23 9.11-79.344 8.16-85.525 35.207-6.227-2.627-12.963-4.795-19.141-6.24 4.309-16.636 13.456-23.688 14.427-24.836 18.053-16.6 36.589-15.515 125.475-30.137zm-48.488 158.707c11.549-2.801 20.68-7.734 27.904-13.937 14.661 10.597 26.753 19.328 36.703 26.506-9.942 7.172-22.035 15.904-36.703 26.506-7.224-6.203-16.355-11.135-27.904-13.937.434-4.132.661-8.325.661-12.57s-.227-8.436-.661-12.568zm-118.81 117.041c-57.605 0-104.47-46.865-104.47-104.471s46.865-104.471 104.47-104.471c57.901 0 104.47 47.133 104.47 104.471 0 57.605-46.865 104.471-104.47 104.471zm129.696 25.224c-45.444-7.356-61.22-7.95-66.559-17.39-.777-1.374-2.001-4.24-2.649-9.319 17.545-10.344 32.228-25.041 42.556-42.596 19.592 2.318 17.796 14.593 26.652 69.305zm-103.19 17.018c-10.591 14.656-19.325 26.75-26.506 36.704-7.181-9.954-15.914-22.048-26.506-36.703 6.203-7.224 11.135-16.354 13.937-27.904 4.132.434 8.324.661 12.569.661s8.438-.227 12.569-.661c2.802 11.549 7.734 20.68 13.937 27.903zm-86.994-43.726c-.648 5.079-1.872 7.945-2.649 9.319-5.346 9.451-20.922 10.003-66.559 17.39 8.849-54.687 7.088-66.991 26.651-69.304 10.329 17.555 25.012 32.251 42.557 42.595zm-69.207-232.682c45.835 7.419 61.225 7.96 66.558 17.39.777 1.374 2.001 4.24 2.649 9.319-17.545 10.344-32.228 25.041-42.556 42.596-19.592-2.318-17.798-14.593-26.651-69.305zm103.189-17.018c10.592-14.656 19.325-26.75 26.506-36.704 7.181 9.955 15.914 22.049 26.506 36.704-6.203 7.224-11.135 16.354-13.937 27.903-4.132-.434-8.325-.661-12.569-.661s-8.438.227-12.569.661c-2.802-11.549-7.734-20.68-13.937-27.903zm129.619 86.313c-10.317-17.62-25.007-32.324-42.616-42.657 2.443-18.925 11.395-17.283 69.198-26.639-9.037 55.837-7.472 67.003-26.582 69.296zm-51.153-136.462c19.371-2.302 38.422 5.58 50.502 20.919-29.191 4.711-28.172 4.494-31.753 5.235-.956-1.458-1.415-2.15-18.749-26.154zm87.875 14.87c-5.98.972-12.925 2.097-20.956 3.396-16.032-25.978-46.842-38.81-76.652-31.751-4.777-6.62-8.907-12.349-12.463-17.285 42.087-14.06 89.614 4.415 110.071 45.64zm-142.649-57.417c.902-1.257 2.15-1.444 2.814-1.444s1.912.188 2.814 1.444c2.26 3.15 5.24 7.297 9.127 12.698.01.015.021.029.031.043 13.301 18.482 30.135 41.791 43.529 60.322-6.172 2.329-12.246 5.409-17.852 9.442-11.546-15.975-20.843-28.853-28.308-39.203-2.16-2.994-5.652-4.781-9.341-4.781s-7.181 1.787-9.342 4.783c-7.464 10.349-16.761 23.226-28.306 39.202-5.606-4.033-11.68-7.113-17.852-9.442 14.274-19.751 38.406-53.161 52.686-73.064zm-77.136 46.391c8.888-3.681 18.541-4.967 27.991-3.844-4.74 6.563-9.975 13.811-15.768 21.826-1.036 1.433-2.025 2.87-2.981 4.328-1.743-.361-3.47-.678-5.168-.951-9.768-1.572-18.595-2.995-26.584-4.284 5.887-7.477 13.622-13.393 22.51-17.075zm-90.359 22.708c.469-.469 1.483-1.217 3.011-.968 91.993 15.139 107.863 13.953 125.462 30.118 1.474 1.755 10.17 8.383 14.438 24.863-6.604 1.556-12.999 3.657-19.133 6.26-.843-3.698-2.029-6.963-3.551-9.655-9.592-16.96-29.496-17.08-81.979-25.583-3.645-.588-7.379.613-9.989 3.223-2.609 2.608-3.815 6.343-3.224 9.989 8.715 53.821 7.759 79.092 35.206 85.604-2.589 6.111-4.679 12.482-6.228 19.059-9.565-2.477-17.46-6.876-23.734-13.251-18.165-23.781-13.537-19.024-31.248-126.649-.251-1.525.499-2.54.969-3.01zm51.499 182.88c-11.549 2.801-20.68 7.734-27.904 13.937-14.659-10.596-26.753-19.329-36.703-26.506 10.759-7.762 23.065-16.648 36.704-26.506 7.224 6.203 16.355 11.135 27.904 13.937-.881 8.377-.882 16.746-.001 25.138zm-51.899-83.279c-3.029 1.988-2.072 1.36-26.154 18.75-2.302-19.369 5.58-38.422 20.919-50.503 4.73 29.314 4.5 28.199 5.235 31.753zm-11.297-69.214c.975 5.999 2.105 12.974 3.411 21.044-25.979 16.034-38.808 46.841-31.751 76.653-6.603 4.764-12.318 8.885-17.241 12.432-14.528-43.369 5.594-90.112 45.581-110.129zm-57.403 142.737c-1.257-.902-1.445-2.15-1.445-2.814s.188-1.912 1.445-2.813c19.675-14.115 53.2-38.331 73.063-52.688 2.329 6.173 5.409 12.246 9.442 17.853-41.852 30.249-43.984 29.77-43.984 37.649 0 3.689 1.787 7.182 4.782 9.342 10.343 7.459 23.22 16.756 39.201 28.306-4.033 5.606-7.113 11.68-9.442 17.852-19.838-14.339-53.173-38.418-73.062-52.687zm57.403 137.109c-39.927-19.988-60.13-66.698-45.581-110.129 4.919 3.544 10.632 7.663 17.241 12.432-7.033 29.708 5.68 60.563 31.751 76.653-1.305 8.064-2.435 15.037-3.411 21.044zm6.063-37.461c-15.323-12.067-23.223-31.114-20.919-50.503 24.214 17.485 23.121 16.76 26.154 18.75-.743 3.586-.518 2.519-5.235 31.753zm8.644 68.815c-1.524.25-2.541-.499-3.01-.968-.47-.47-1.22-1.484-.969-3.011 15.246-92.666 14.45-108.47 30.184-125.532 1.76-1.517 8.476-10.142 24.798-14.369 1.549 6.577 3.639 12.948 6.228 19.059-27.429 6.508-26.456 31.577-35.207 85.604-.59 3.646.615 7.381 3.225 9.989 2.172 2.172 5.124 3.37 8.154 3.37.61 0 1.224-.048 1.834-.147 52.229-8.461 72.393-8.636 81.981-25.583 1.522-2.691 2.708-5.956 3.55-9.655 6.133 2.603 12.529 4.705 19.133 6.26-10.778 41.623-53.557 40.314-88.852 46.68-26.59 4.299-42.142 6.838-51.049 8.303zm115.348 25.597c-19.027 2.269-38.238-5.346-50.511-20.931 29.193-4.711 28.172-4.494 31.753-5.235 2.01 3.064 1.397 2.122 18.758 26.166zm-87.884-14.882c5.981-.972 12.927-2.098 20.956-3.397 16.125 26.13 47.048 38.775 76.66 31.761 4.774 6.616 8.901 12.341 12.456 17.274-42.488 14.197-89.799-4.783-110.072-45.638zm142.649 57.417c-.902 1.257-2.15 1.444-2.814 1.444s-1.912-.188-2.814-1.444c-14.241-19.85-38.378-53.266-52.687-73.063 6.172-2.329 12.246-5.409 17.852-9.442 11.547 15.975 20.843 28.854 28.307 39.203 2.16 2.994 5.652 4.781 9.341 4.781s7.181-1.787 9.342-4.782c7.464-10.349 16.761-23.227 28.306-39.203 5.607 4.033 11.68 7.113 17.853 9.442-14.288 19.77-38.437 53.203-52.686 73.064zm49.137-42.535c15.866-21.973 16.597-22.873 18.758-26.166 4.019.832 5.925 1.07 31.766 5.238-11.973 15.208-31.015 23.24-50.524 20.928zm118.358-26.564c-.469.47-1.482 1.218-3.011.969-19.354-3.186-51.591-8.391-51.167-8.322-36.671-5.923-78.175-5.885-88.734-46.66 6.604-1.556 12.999-3.657 19.133-6.26.843 3.698 2.029 6.963 3.551 9.655 9.592 16.96 29.496 17.08 81.979 25.583 7.757 1.252 14.47-5.456 13.213-13.212-8.62-53.224-7.587-79.051-35.206-85.604 2.589-6.111 4.679-12.482 6.228-19.059 40.85 10.578 39.945 51.351 46.681 88.856 2.422 14.984 5.846 36.12 8.301 51.045.252 1.523-.498 2.539-.968 3.009zm.4-99.601c3.028-1.987 2.082-1.368 26.154-18.75 2.302 19.368-5.579 38.422-20.919 50.503-4.704-29.146-4.492-28.164-5.235-31.753zm11.297 69.214c-.976-6.007-2.107-12.98-3.411-21.044 25.983-16.036 38.807-46.846 31.751-76.653 6.608-4.768 12.322-8.888 17.241-12.432 14.528 43.368-5.593 90.111-45.581 110.129zm57.404-137.109c-19.834 14.229-53.16 38.301-73.064 52.687-2.329-6.173-5.41-12.246-9.442-17.853 15.993-11.559 28.868-20.853 39.202-28.306 2.995-2.161 4.783-5.654 4.783-9.345 0-3.689-1.789-7.182-4.783-9.34-10.342-7.46-23.218-16.755-39.202-28.307 4.033-5.607 7.113-11.68 9.442-17.853 19.75 14.275 53.236 38.463 73.063 52.688 1.257.902 1.445 2.15 1.445 2.814 0 .665-.188 1.914-1.444 2.815z"/></g></g></svg>